<svg width="144" height="144" viewBox="0 0 144 144" fill="none" xmlns="http://www.w3.org/2000/svg">
<g clip-path="url(#clip0)">
<rect width="144" height="144" fill="#CFBBA2"/>
<circle cx="71.5" cy="72.5" r="61.5" fill="white"/>
<path d="M14.64 119H27.12V75.32C27.12 67.4 26.04 56 25.44 47.96H25.92L32.88 68.36L48.36 110.48H57L72.36 68.36L79.44 47.96H79.92C79.2 56 78.12 67.4 78.12 75.32V119H91.08V30.56H75L59.04 75.32C57 81.2 55.32 87.2 53.28 93.08H52.68C50.64 87.2 48.84 81.2 46.8 75.32L30.6 30.56H14.64V119Z" fill="#2E3234"/>
<path d="M108.35 47.53H111.08V45.01H108.35V38.83H105.83V45.01H102.56V47.53H105.71C105.02 51.43 103.55 56.02 101.96 58.57C102.38 59.17 103.01 60.25 103.31 60.97C104.24 59.44 105.08 57.22 105.83 54.82V66.37H108.35V52.15C109.07 53.56 109.79 55.18 110.15 56.14L111.62 53.89C111.17 53.08 109.1 49.54 108.35 48.43V47.53ZM123.14 58.24C122.24 57.52 120.65 56.32 119.39 55.54L117.95 56.86C119.12 57.67 120.74 58.96 121.61 59.74L123.14 58.24ZM115.76 59.86C115.94 58.54 116.12 57.07 116.3 55.54H125.18C125.09 57.31 125 58.75 124.88 59.86H115.76ZM125.42 49.09C125.39 50.59 125.33 51.97 125.3 53.17H122.12L123.56 51.7C122.72 51.01 121.1 49.9 119.87 49.12L118.43 50.47C119.57 51.25 121.19 52.42 122.06 53.17H116.6C116.75 51.79 116.9 50.41 117.02 49.09H125.42ZM129.74 55.54V53.17H127.79C127.85 51.64 127.91 49.93 127.97 48.01V46.81H114.83C115.31 46.03 115.79 45.22 116.21 44.35H129.2V41.92H117.29C117.59 41.11 117.89 40.21 118.16 39.37L115.67 38.77C114.8 41.98 113.24 45.1 111.29 47.11C111.89 47.5 112.91 48.34 113.36 48.79C113.84 48.25 114.26 47.68 114.71 47.02C114.56 48.91 114.35 51.01 114.11 53.17H111.77V55.54H113.84C113.51 58.03 113.15 60.4 112.85 62.17H124.55C124.43 62.86 124.28 63.28 124.13 63.49C123.83 63.88 123.56 63.97 123.14 63.94C122.63 63.94 121.52 63.94 120.35 63.85C120.74 64.48 121.01 65.5 121.04 66.16C122.3 66.22 123.5 66.22 124.31 66.1C125.18 66.01 125.78 65.74 126.32 64.93C126.68 64.51 126.92 63.67 127.13 62.17H129.38V59.86H127.37C127.49 58.69 127.58 57.25 127.67 55.54H129.74ZM120.68 100.01C119.48 101.42 117.89 102.53 116 103.49C114.02 102.5 112.31 101.36 110.93 100.01H120.68ZM129.17 100.01V97.55H117.53C117.11 96.77 116.51 95.72 115.97 94.97L113.48 95.72C113.78 96.26 114.14 96.92 114.47 97.55H108.26C113.54 95.15 114.29 91.43 114.29 87.59V81.86H111.65V84.26H103.13V86.33H111.65V87.53V87.83H104.03V89.87H111.47C111.38 90.35 111.26 90.77 111.08 91.25C107.81 91.52 104.6 91.82 102.32 91.97L102.59 94.16C104.63 93.95 107.09 93.68 109.64 93.38C108.77 94.28 107.54 95.09 105.74 95.78C106.25 96.2 106.94 96.95 107.39 97.55H102.8V100.01H107.75C109.19 101.84 110.99 103.4 113.09 104.69C109.88 105.8 106.16 106.49 102.2 106.88C102.65 107.48 103.34 108.71 103.58 109.4C108.05 108.74 112.31 107.81 115.97 106.22C119.45 107.84 123.5 108.86 128 109.4C128.36 108.68 129.02 107.54 129.62 106.91C125.72 106.55 122.09 105.8 118.94 104.69C121.01 103.46 122.78 101.93 124.13 100.01H129.17ZM120.68 91.55V89.93H128.06V87.89H120.68V86.33H128.84V84.26H120.68V81.86H118.01V96.47H120.68V93.65H129.68V91.55H120.68Z" fill="#2E3234"/>
</g>
<defs>
<clipPath id="clip0">
<rect width="144" height="144" fill="white"/>
</clipPath>
</defs>
</svg>
