<svg width="247" height="51" viewBox="0 0 247 51" fill="none" xmlns="http://www.w3.org/2000/svg">
<path d="M8.575 21.785H11.76V18.845H8.575V11.635H5.635V18.845H1.82V21.785H5.495C4.69 26.335 2.975 31.69 1.12 34.665C1.61 35.365 2.345 36.625 2.695 37.465C3.78 35.68 4.76 33.09 5.635 30.29V43.765H8.575V27.175C9.415 28.82 10.255 30.71 10.675 31.83L12.39 29.205C11.865 28.26 9.45 24.13 8.575 22.835V21.785ZM25.83 34.28C24.78 33.44 22.925 32.04 21.455 31.13L19.775 32.67C21.14 33.615 23.03 35.12 24.045 36.03L25.83 34.28ZM17.22 36.17C17.43 34.63 17.64 32.915 17.85 31.13H28.21C28.105 33.195 28 34.875 27.86 36.17H17.22ZM28.49 23.605C28.455 25.355 28.385 26.965 28.35 28.365H24.64L26.32 26.65C25.34 25.845 23.45 24.55 22.015 23.64L20.335 25.215C21.665 26.125 23.555 27.49 24.57 28.365H18.2C18.375 26.755 18.55 25.145 18.69 23.605H28.49ZM33.53 31.13V28.365H31.255C31.325 26.58 31.395 24.585 31.465 22.345V20.945H16.135C16.695 20.035 17.255 19.09 17.745 18.075H32.9V15.24H19.005C19.355 14.295 19.705 13.245 20.02 12.265L17.115 11.565C16.1 15.31 14.28 18.95 12.005 21.295C12.705 21.75 13.895 22.73 14.42 23.255C14.98 22.625 15.47 21.96 15.995 21.19C15.82 23.395 15.575 25.845 15.295 28.365H12.565V31.13H14.98C14.595 34.035 14.175 36.8 13.825 38.865H27.475C27.335 39.67 27.16 40.16 26.985 40.405C26.635 40.86 26.32 40.965 25.83 40.93C25.235 40.93 23.94 40.93 22.575 40.825C23.03 41.56 23.345 42.75 23.38 43.52C24.85 43.59 26.25 43.59 27.195 43.45C28.21 43.345 28.91 43.03 29.54 42.085C29.96 41.595 30.24 40.615 30.485 38.865H33.11V36.17H30.765C30.905 34.805 31.01 33.125 31.115 31.13H33.53ZM57.96 32.845C56.56 34.49 54.705 35.785 52.5 36.905C50.19 35.75 48.195 34.42 46.585 32.845H57.96ZM67.865 32.845V29.975H54.285C53.795 29.065 53.095 27.84 52.465 26.965L49.56 27.84C49.91 28.47 50.33 29.24 50.715 29.975H43.47C49.63 27.175 50.505 22.835 50.505 18.355V11.67H47.425V14.47H37.485V16.885H47.425V18.285V18.635H38.535V21.015H47.215C47.11 21.575 46.97 22.065 46.76 22.625C42.945 22.94 39.2 23.29 36.54 23.465L36.855 26.02C39.235 25.775 42.105 25.46 45.08 25.11C44.065 26.16 42.63 27.105 40.53 27.91C41.125 28.4 41.93 29.275 42.455 29.975H37.1V32.845H42.875C44.555 34.98 46.655 36.8 49.105 38.305C45.36 39.6 41.02 40.405 36.4 40.86C36.925 41.56 37.73 42.995 38.01 43.8C43.225 43.03 48.195 41.945 52.465 40.09C56.525 41.98 61.25 43.17 66.5 43.8C66.92 42.96 67.69 41.63 68.39 40.895C63.84 40.475 59.605 39.6 55.93 38.305C58.345 36.87 60.41 35.085 61.985 32.845H67.865ZM57.96 22.975V21.085H66.57V18.705H57.96V16.885H67.48V14.47H57.96V11.67H54.845V28.715H57.96V25.425H68.46V22.975H57.96Z" fill="#2E3234"/>
<path d="M85.395 41H89.035V28.26C89.035 25.95 88.72 22.625 88.545 20.28H88.685L90.715 26.23L95.23 38.515H97.75L102.23 26.23L104.295 20.28H104.435C104.225 22.625 103.91 25.95 103.91 28.26V41H107.69V15.205H103L98.345 28.26C97.75 29.975 97.26 31.725 96.665 33.44H96.49C95.895 31.725 95.37 29.975 94.775 28.26L90.05 15.205H85.395V41ZM119.383 27C120.223 24.2 121.028 21.365 121.763 18.425H121.938C122.708 21.33 123.478 24.2 124.353 27L125.368 30.465H118.333L119.383 27ZM111.053 41H115.183L117.388 33.65H126.348L128.518 41H132.823L124.283 15.205H119.593L111.053 41ZM139.874 41H143.934V31.235L151.704 15.205H147.469L144.459 22.065C143.689 23.99 142.849 25.775 142.009 27.735H141.869C140.994 25.775 140.259 23.99 139.454 22.065L136.479 15.205H132.139L139.874 31.235V41ZM154.985 41H159.045V29.905H168.565V26.51H159.045V18.635H170.245V15.205H154.985V41ZM178.24 27C179.08 24.2 179.885 21.365 180.62 18.425H180.795C181.565 21.33 182.335 24.2 183.21 27L184.225 30.465H177.19L178.24 27ZM169.91 41H174.04L176.245 33.65H185.205L187.375 41H191.68L183.14 15.205H178.45L169.91 41ZM195.078 41H199.138V15.205H195.078V41ZM205.878 41H209.938V30.605H214.103L219.948 41H224.533L218.233 30.08C221.488 29.065 223.623 26.685 223.623 22.695C223.623 17.13 219.633 15.205 214.313 15.205H205.878V41ZM209.938 27.35V18.495H213.823C217.568 18.495 219.598 19.58 219.598 22.695C219.598 25.81 217.568 27.35 213.823 27.35H209.938ZM228.847 41H244.457V37.57H232.907V29.24H242.357V25.81H232.907V18.635H244.072V15.205H228.847V41Z" fill="#2E3234"/>
</svg>
